<svg width="1261" height="367" xmlns="http://www.w3.org/2000/svg" version="1.1" enable-background="new 0 0 1261 367" xml:space="preserve">
 <g>
  <title>Layer 1</title>
  <path fill="#382221" d="m58.52199,346.99539c-1.62297,-20.61398 -3.56813,-40.82266 -4.45678,-61.07766c-1.7064,-38.89435 -3.18223,-77.80672 -4.05523,-116.7273c-0.72382,-32.27016 -0.56017,-64.58605 6.02563,-96.41927c2.98652,-14.43573 7.50786,-28.25471 17.32427,-39.85673c15.65994,-18.50852 38.6638,-17.06576 51.69863,3.45746c9.99184,15.73209 15.42594,33.28099 18.77032,51.3031c4.39488,23.68308 7.50844,47.60394 11.17126,71.4228c0.98998,6.43769 1.23949,6.42124 7.44283,6.02013c22.72465,-1.46938 45.45558,-2.85463 68.19366,-4.09753c10.29759,-0.56287 20.61598,-0.78255 30.92812,-1.02024c3.38574,-0.07803 5.01773,-1.27729 5.53329,-4.86918c3.18814,-22.21268 5.95539,-44.5144 10.11106,-66.55108c3.76702,-19.97592 9.30502,-39.58675 21.23513,-56.63856c11.87387,-16.97137 31.99692,-18.70683 46.84525,-4.18467c12.41263,12.13998 17.74151,27.71316 20.43811,44.11324c2.55643,15.54733 4.47433,31.30862 5.10641,47.03878c1.04254,25.94474 1.44986,51.95193 0.96244,77.91098c-0.50241,26.7572 -2.2544,53.49598 -3.72199,80.22841c-1.1665,21.24764 -2.72876,42.47351 -4.11352,63.70919c-0.04337,0.66489 0.19287,1.5423 -0.14594,1.95978c-1.42056,1.75061 -3.01056,3.36365 -4.53851,5.02704c-1.40473,-1.729 -3.99347,-3.44702 -4.00968,-5.18894c-0.07104,-7.63284 0.51023,-15.27883 1.02759,-22.90835c0.83212,-12.27075 1.99539,-24.52152 2.67087,-36.79987c1.42508,-25.90469 3.09607,-51.80931 3.78232,-77.73735c0.6611,-24.9786 0.72558,-49.99965 0.09646,-74.97798c-0.5903,-23.43861 -2.06314,-46.90898 -8.9403,-69.58128c-3.41745,-11.26646 -7.96424,-22.088 -18.02375,-29.16287c-10.5336,-7.40832 -20.47677,-5.96285 -28.69412,3.86938c-10.01459,11.98266 -14.00638,26.7045 -18.08377,41.30231c-6.55887,23.48219 -9.2988,47.62984 -12.12689,71.75595c-0.50281,4.2894 -1.1514,8.57379 -1.99466,12.80833c-1.233,6.19187 -3.20483,7.75364 -9.60236,7.82625c-6.62939,0.07526 -13.26115,-0.05166 -19.89038,0.03049c-29.95164,0.37114 -59.86781,1.32826 -89.56528,5.70711c-3.95107,0.58259 -6.66522,-1.15198 -7.43171,-4.95281c-1.6742,-8.30174 -3.4444,-16.62112 -4.41477,-25.02116c-3.50073,-30.3039 -7.47871,-60.51746 -19.12579,-89.00309c-2.85058,-6.97176 -7.07403,-13.54149 -11.54013,-19.65798c-7.66962,-10.50382 -21.89739,-8.54589 -30.40913,-0.56215c-6.88125,6.45439 -11.12872,14.48647 -14.02269,23.28455c-5.60321,17.03446 -7.95025,34.66241 -8.94517,52.47863c-0.82547,14.782 -1.81409,29.58212 -1.83286,44.37534c-0.02597,20.47033 0.7028,40.94418 1.28153,61.41165c0.29612,10.47244 0.83169,20.94294 1.49776,31.39914c1.90235,29.86409 3.93466,59.71992 5.88738,89.58085c0.14107,2.15717 0.41015,4.40699 -0.03805,6.47086c-0.38259,1.76187 -1.42564,4.34799 -2.69557,4.70068c-1.53276,0.42572 -3.61298,-1.11972 -5.61129,-2.19638z" id="svg_2"/>
  <path fill="#372225" d="m447.27606,228.72166c-2.02795,-1.20841 -3.75619,-2.20623 -5.45849,-3.24653c-2.40073,-1.46706 -4.59833,-3.18511 -3.03852,-6.3933c1.47595,-3.03573 3.98957,-3.07948 6.7854,-1.813c0.70487,0.31927 1.54746,0.33455 3.56629,0.73607c-0.48014,-7.39189 -0.50723,-14.28916 -1.45108,-21.05858c-2.31833,-16.62709 -5.00324,-33.20439 -7.70365,-49.77516c-0.31863,-1.95522 -1.65396,-3.74478 -2.51797,-5.61113c-1.87155,0.93319 -4.04443,1.53465 -5.5343,2.88803c-1.66141,1.5092 -2.43781,3.99045 -4.09494,5.50723c-1.36905,1.25313 -3.80112,2.71268 -5.13575,2.25481c-1.36193,-0.46726 -3.164,-3.70706 -2.67651,-4.78273c1.77869,-3.92476 3.59653,-8.69852 6.90054,-10.91709c15.32437,-10.28994 32.10724,-12.38436 49.42533,-5.64216c12.36447,4.8137 15.78555,14.90478 9.80108,26.72787c-1.03567,2.0461 -2.21707,4.01844 -3.68011,6.65331c2.15216,0.69761 3.9404,1.30487 5.74527,1.858c15.01703,4.6023 27.33212,12.36336 32.32785,28.31711c3.78528,12.08813 -0.67035,24.96052 -11.39093,31.95134c-14.08002,9.18141 -29.60455,11.25407 -45.95685,8.16296c-0.97812,-0.18492 -2.09622,-0.77264 -2.91196,-0.48948c-5.7951,2.01141 -9.68649,-0.39972 -13.0007,-5.32757m62.37058,-15.74595c2.61337,-4.61908 3.97165,-9.31513 2.47226,-14.76131c-4.46576,-16.22069 -25.43366,-27.82486 -42.74466,-23.43963c-2.73584,0.69305 -5.55274,1.92262 -7.31211,-1.70221c-1.90457,-3.92397 1.32611,-5.06278 3.47306,-7.09392c4.43145,-4.19251 9.17154,-8.27594 12.64108,-13.20862c3.65182,-5.19179 1.76807,-11.16927 -4.22546,-12.9425c-6.51716,-1.92817 -13.52796,-2.34908 -20.36484,-2.97939c-4.655,-0.42912 -5.77225,2.00392 -4.89987,6.61064c4.60989,24.34334 8.6567,48.77278 9.40914,73.62238c0.18394,6.07397 2.01096,8.30101 7.99665,8.7012c6.5711,0.43933 13.2919,0.73898 19.77728,-0.14675c9.00726,-1.23017 17.42963,-4.43206 23.77747,-12.65989z" id="svg_3"/>
  <path fill="#372225" d="m927.47357,111.34982c7.99896,4.21249 13.21192,10.14713 14.36878,18.97078c0.24908,1.89948 0.13555,4.2282 -0.78357,5.78495c-0.81537,1.38089 -2.99201,2.68336 -4.54828,2.66107c-1.14777,-0.01645 -2.98786,-2.07022 -3.28241,-3.47551c-2.89752,-13.82568 -10.70447,-19.74185 -24.97602,-17.16719c-6.7044,1.2095 -13.58062,3.63136 -19.3883,7.14257c-8.86273,5.35827 -9.81708,13.22886 -3.87232,21.73925c6.70405,9.59735 17.1355,13.94472 27.1261,18.90126c8.48157,4.20787 17.13044,8.14471 25.30585,12.88974c18.9314,10.98784 18.94434,29.32078 4.04181,44.09402c-20.10974,19.9353 -59.62787,16.88385 -75.86511,-6.24673c-2.7536,-3.92262 -3.47394,-9.49521 -4.24616,-14.44399c-0.21826,-1.3986 2.70966,-3.28816 4.19464,-4.95254c1.45234,1.52411 4.10535,3.01013 4.15509,4.57875c0.25537,8.04625 5.32886,12.8231 11.0207,16.94861c15.78955,11.44442 36.57714,11.1642 52.09436,-0.69844c3.09063,-2.36275 5.82208,-5.57959 7.79357,-8.94489c4.57251,-7.8051 2.66059,-16.01643 -5.78894,-21.06055c-9.97052,-5.95215 -20.63055,-10.75193 -31.0075,-16.02011c-9.37677,-4.76036 -18.76459,-9.55197 -25.38336,-18.10724c-10.10688,-13.06385 -8.3946,-27.0708 5.15325,-36.36306c13.26996,-9.10167 27.8172,-12.54196 43.88782,-6.23075z" id="svg_4"/>
  <path fill="#372225" d="m1207.93774,161.41983c1.4303,13.4897 -9.37036,24.32436 -21.33105,28.53102c-7.57996,2.66588 -15.78247,3.70975 -23.78662,4.9668c-5.09412,0.8 -6.56067,1.88644 -5.56128,7.03325c2.77722,14.30272 11.39893,20.0988 25.38477,18.53822c6.18395,-0.69003 12.16406,-3.19576 18.24133,-4.8605c1.91821,-0.52546 3.90942,-1.53406 5.76037,-1.33381c1.67749,0.18149 3.88892,1.36822 4.5813,2.75332c0.51477,1.02995 -0.56921,3.8311 -1.73413,4.5399c-3.08337,1.87608 -6.49951,3.35814 -9.95788,4.43698c-11.5647,3.60747 -23.2522,6.40185 -34.99121,0.69925c-10.7782,-5.23581 -16.00147,-14.21588 -16.41517,-25.95262c-0.151,-4.28321 -1.67566,-6.34677 -5.97229,-6.94367c-2.17382,-0.30197 -4.53711,-1.37108 -6.14648,-2.83033c-1.01672,-0.92199 -1.58997,-3.6923 -0.93542,-4.75442c0.82104,-1.33244 3.21386,-2.638 4.73535,-2.44374c9.68444,1.23641 9.42627,1.24289 13.94714,-7.08706c7.24329,-13.34627 17.28369,-23.66075 32.69238,-27.18088c10.99939,-2.51285 19.25318,2.07815 21.48889,11.88829m-32.63977,3.29515c-6.69311,5.32747 -11.93786,11.66725 -14.83496,20.76529c2.41699,0.16019 4.27259,0.74214 5.84851,0.30853c6.98401,-1.92155 14.20203,-3.45981 20.70569,-6.48855c4.07886,-1.89945 7.6305,-5.78716 10.271,-9.58132c1.45996,-2.09767 1.79724,-6.85748 0.39075,-8.57794c-1.64075,-2.00711 -6.00916,-3.21579 -8.70643,-2.60768c-4.56164,1.02849 -8.74011,3.75661 -13.67456,6.18167z" id="svg_5"/>
  <path fill="#372225" d="m733.74194,166.2792c9.49012,11.89904 12.65857,25.84301 15.20758,39.99477c0.73584,4.08522 1.11402,8.23603 1.61847,12.36139c0.39893,3.26238 0.66321,6.98596 -3.49884,7.58841c-4.3731,0.63296 -5.17291,-3.05922 -5.86889,-6.50946c-2.2959,-11.38103 -4.32154,-22.84059 -7.27155,-34.05411c-1.2254,-4.65762 -3.98028,-9.19896 -7.00427,-13.0321c-4.87183,-6.17543 -10.3515,-6.13268 -16.25403,-0.91815c-8.60986,7.6063 -13.97455,17.26919 -17.6991,27.93861c-1.53228,4.38928 -2.37982,9.04637 -4.21624,13.28844c-0.90186,2.08328 -3.34906,3.49757 -5.09699,5.21461c-1.57178,-1.79597 -4.289,-3.44899 -4.53381,-5.41057c-1.914,-15.33757 -3.43628,-30.7267 -4.86792,-46.11958c-0.27942,-3.00438 0.2893,-6.61546 4.21954,-6.74535c3.92847,-0.1298 5.1153,3.16604 5.40265,6.55344c0.44965,5.30041 0.70953,10.6171 1.17334,15.91606c0.19586,2.23796 0.70538,4.44844 1.30273,8.06705c2.91706,-5.0536 4.78937,-9.11142 7.3996,-12.6203c3.53967,-4.75832 7.11615,-9.72891 11.6145,-13.48575c10.11609,-8.44861 18.75482,-7.61847 28.37323,1.97259z" id="svg_6"/>
  <path fill="#372225" d="m607.94849,194.27113c-0.63117,-9.75164 -1.28693,-19.02781 -1.81891,-28.31109c-0.08338,-1.45449 -0.07801,-3.30977 0.71789,-4.3328c1.45191,-1.86616 3.52631,-3.24803 5.34095,-4.83197c1.24743,1.90142 3.43902,3.73943 3.57177,5.7157c0.46784,6.96553 0.16754,13.97966 0.30005,20.97266c0.03546,1.87251 0.57361,3.73552 0.90473,5.74734c4.88623,-6.87039 9.42352,-13.29318 14.02368,-19.67058c0.67193,-0.93165 1.61072,-1.68438 2.4823,-2.45643c8.75348,-7.75382 19.5191,-5.82305 24.07165,4.95376c2.54871,6.03322 4.18897,12.64058 5.05377,19.14672c1.09107,8.20784 0.99854,16.57519 1.36445,24.87604c0.12963,2.94123 -0.64496,5.50694 -4.15345,5.6293c-3.7677,0.13141 -4.51214,-2.51882 -4.77881,-5.65569c-0.9273,-10.90579 -1.94879,-21.80385 -3.00433,-32.69809c-0.12628,-1.3032 -0.61194,-2.58911 -1.04901,-3.84185c-3.10553,-8.90126 -8.12402,-9.89817 -14.34601,-2.63761c-8.77441,10.239 -13.29077,22.5499 -16.60504,35.38211c-0.78986,3.05812 -0.93964,6.38002 -2.25616,9.16875c-0.86548,1.83334 -3.29486,2.92836 -5.02387,4.35405c-1.22351,-1.71083 -3.36426,-3.34519 -3.51446,-5.14554c-0.7176,-8.60586 -0.89539,-17.25676 -1.28119,-26.36478z" id="svg_7"/>
  <path fill="#372225" d="m1058.48511,149.47401c24.01709,11.39415 30.84363,36.46883 15.8407,57.00071c-8.0254,10.98301 -21.51184,15.92892 -33.35328,12.23179c-10.93981,-3.41566 -19.0064,-14.96246 -18.81555,-28.4617c0.17316,-12.2498 3.17322,-23.7964 12.73194,-32.48999c2.05151,-1.8659 4.47363,-3.71357 7.05383,-4.5274c5.27795,-1.66471 10.77905,-2.62186 16.54236,-3.75341m-24.5437,51.82906c4.51953,7.49484 10.36584,10.50772 17.69738,9.1203c19.57312,-3.70402 27.68372,-28.27303 15.36621,-44.12459c-9.3706,-12.05919 -25.01074,-5.74422 -30.10266,3.16111c-5.62048,9.83009 -7.29321,20.21646 -2.96093,31.84318z" id="svg_8"/>
  <path fill="#372225" d="m555.58386,212.60586c9.96021,-11.90334 14.9234,-25.82386 19.33429,-40.00936c0.34564,-1.11174 0.36841,-2.50017 1.07105,-3.2867c1.31994,-1.47755 3.36834,-3.88783 4.49456,-3.58759c1.73261,0.46189 3.83332,2.70531 4.19343,4.50917c0.80468,4.03142 0.29919,8.30855 0.92016,12.39551c1.69043,11.1249 3.91016,22.02348 14.06708,29.23738c1.08093,0.76773 1.47876,4.58061 0.61853,5.48868c-1.16303,1.22754 -4.33112,1.97617 -5.80103,1.24524c-6.22491,-3.09547 -9.89679,-8.67519 -12.58264,-14.93011c-1.28875,-3.00141 -2.54248,-6.01786 -4.14172,-9.80904c-2.98694,5.47293 -5.30023,10.35966 -8.20038,14.86894c-4.03168,6.26862 -8.08887,12.61258 -15.19006,16.08186c-6.83887,3.34122 -14.00458,1.64469 -17.33393,-5.28221c-2.62182,-5.45489 -5.1159,-11.48924 -5.47735,-17.40007c-0.66522,-10.87898 0.03283,-21.87066 0.66375,-32.78642c0.28827,-4.98869 3.70807,-7.33989 6.66486,-5.12396c1.50842,1.13048 2.54572,4.15619 2.30634,6.14609c-1.51886,12.62921 -2.1283,25.1867 0.79345,37.69902c0.26404,1.1309 0.57087,2.26091 0.97223,3.34915c2.2616,6.13244 5.08258,6.9369 10.4317,3.00186c0.66822,-0.49158 1.30713,-1.02316 2.19568,-1.80744z" id="svg_9"/>
  <path fill="#372225" d="m981.01489,182.90515c1.79047,7.17215 2.91999,14.16684 5.53736,20.55167c1.64984,4.0247 5.70715,7.00841 8.328,10.71139c1.36761,1.93213 1.96417,4.40993 2.90893,6.64127c-2.36193,0.46051 -5.02868,1.86063 -7.0307,1.21133c-6.95806,-2.25671 -10.53845,-8.38467 -12.51983,-14.65829c-3.08197,-9.75794 -5.1059,-19.87744 -7.11164,-29.93675c-1.05615,-5.29651 -1.41033,-5.922 -6.7135,-4.38568c-1.59698,0.46264 -3.22516,1.43045 -4.76812,1.30363c-1.72706,-0.14195 -4.50287,-0.95854 -4.79279,-2.03047c-0.44476,-1.64447 0.25922,-4.70084 1.51697,-5.48236c2.89001,-1.79584 6.34534,-2.81935 9.69104,-3.70218c2.77545,-0.73239 3.68127,-1.99907 3.57873,-4.90415c-0.34576,-9.79654 -0.43298,-19.60367 -0.50415,-29.40757c-0.02313,-3.18567 0.74219,-6.41757 4.72797,-6.28604c3.78735,0.12497 4.03033,3.44472 4.06854,6.31912c0.10608,7.98716 -0.0152,15.97775 0.125,23.96396c0.12708,7.23486 0.98804,7.83932 7.99426,7.35431c3.64521,-0.25235 7.3194,-0.17507 10.97822,-0.11223c2.7362,0.04699 5.66955,0.24639 5.71789,3.98472c0.04877,3.7625 -2.81164,4.54473 -5.78229,4.81858c-3.96338,0.3654 -7.9411,0.78083 -11.91345,0.78862c-4.65155,0.00911 -5.59106,2.51512 -5.00037,6.41629c0.32294,2.13328 0.62244,4.27012 0.96393,6.84083z" id="svg_10"/>
  <path fill="#382221" d="m209.34296,276.08893c-7.03052,-7.20825 -5.94185,-12.12662 3.22686,-15.68695c0.61997,-0.24073 1.25661,-0.44867 1.8996,-0.61838c3.64084,-0.96109 7.47328,-3.01657 10.78247,0.38803c3.39989,3.49799 1.28118,7.37054 -0.38907,10.66568c-2.02137,3.98789 -0.77316,6.08295 2.76395,7.95477c9.3633,4.95499 18.85553,9.4018 29.86496,7.15998c2.51831,-0.51279 4.76172,-2.29828 7.27411,-2.94202c1.94305,-0.49789 4.10855,-0.12753 6.17517,-0.14316c-0.3764,2.22556 -0.05914,5.83676 -1.25098,6.43332c-4.79208,2.39887 -9.94622,4.95154 -15.15875,5.45413c-11.50883,1.10975 -21.97224,-3.23721 -31.61975,-9.10632c-3.92928,-2.39041 -6.25394,-1.94669 -9.39133,1.19498c-11.45988,11.47543 -27.87262,14.10189 -41.20465,6.70245c-2.69519,-1.49585 -5.27557,-3.65311 -7.08563,-6.11157c-1.01866,-1.38361 -0.3544,-4.00632 -0.44827,-6.07077c2.07335,0.17837 5.11996,-0.4621 6.06724,0.66376c8.12427,9.65585 27.32378,9.78454 37.03697,-1.4943c0.92684,-1.07623 1.12061,-2.78372 1.4571,-4.44363z" id="svg_11"/>
  <path fill="#372225" d="m1136.94568,163.9505c-16.55152,9.31233 -27.32642,22.49693 -30.48377,41.21486c-0.49438,2.931 -0.40564,5.96022 -0.58886,8.94389c-0.20691,3.36814 -0.2937,7.37422 -4.66199,7.49401c-4.81946,0.13215 -4.81885,-4.20548 -5.13513,-7.6554c-0.72693,-7.93013 -1.10474,-15.89824 -2.04187,-23.80142c-0.87866,-7.40971 -2.30481,-14.75406 -3.46472,-22.13115c-0.23157,-1.47298 -0.43055,-2.96016 -0.50061,-4.44756c-0.15027,-3.19139 0.88598,-5.76408 4.46704,-6.00233c3.59277,-0.23903 4.06079,2.43349 4.53381,5.2847c1.09839,6.6188 2.47485,13.1914 3.98853,21.08528c2.53064,-3.29193 4.2528,-5.41699 5.85119,-7.63138c7.28064,-10.08606 16.97949,-17.19047 27.96997,-22.67808c2.6742,-1.33524 5.81897,-3.07463 7.75574,0.75851c1.76465,3.49278 -0.66565,5.52245 -3.53699,7.06827c-1.31421,0.7075 -2.55481,1.55124 -4.15234,2.4978z" id="svg_12"/>
  <path fill="#392221" d="m160.12251,265.1329c-4.57962,2.73499 -8.80592,5.37592 -13.17402,7.7566c-3.49825,1.90655 -6.3254,0.82125 -8.57155,-2.42298c-2.27066,-3.27963 -3.93808,-7.03369 -0.28897,-9.78659c9.89225,-7.4628 20.07472,-14.55819 30.36802,-21.46243c3.4703,-2.32767 6.71857,-0.77767 8.81704,2.7731c2.16331,3.66048 3.57481,7.438 -0.53739,10.66779c-5.35115,4.20291 -10.87277,8.18881 -16.61313,12.47451z" id="svg_13"/>
  <path fill="#392221" d="m247.64059,237.66589c1.96715,-3.48094 4.60018,-4.23988 7.83103,-2.89822c12.01468,4.98927 22.07757,12.84671 31.34634,21.76593c4.26859,4.10757 0.64093,7.73932 -1.556,11.00391c-2.01657,2.99658 -5.2688,2.80325 -8.02075,0.99142c-9.42865,-6.20773 -18.78665,-12.52621 -28.07377,-18.94398c-4.54319,-3.13953 -4.93184,-7.17159 -1.52685,-11.91906z" id="svg_14"/>
  <path fill="#372225" d="m766.05609,204.85574c-0.69311,-14.49289 -1.33618,-28.55826 -1.93951,-42.62532c-0.03467,-0.80867 -0.03839,-1.97589 0.44464,-2.38601c1.83337,-1.5566 3.87286,-2.8703 5.83532,-4.27483c1.05121,1.99669 3.12714,4.06584 2.99195,5.97867c-1.10693,15.65463 -0.68213,31.19034 2.71734,46.54312c0.81879,3.69756 2.38465,7.23299 3.65314,10.82663c1.01593,2.87796 1.56085,6.17256 -1.98596,6.98669c-1.75647,0.40319 -5.32062,-1.47615 -6.04163,-3.17984c-2.37103,-5.60287 -3.81585,-11.5977 -5.67529,-17.86911z" id="svg_15"/>
  <path fill="#372225" d="m768.19678,120.25796c1.78253,1.43413 3.92407,2.72773 4.3338,4.43655c0.25195,1.0507 -1.92352,3.45022 -3.41974,3.91114c-1.20013,0.36972 -3.01831,-1.26634 -4.5622,-2.0123c1.09211,-2.10021 2.18415,-4.20043 3.64814,-6.33539z" id="svg_16"/>
  <path d="m199.5,41c1,0 2,1 3,2c1,1 1,2 2,2c1,0 0.58578,1.58578 2,3c0.70711,0.70711 2,1 3,2c1,1 1.07613,2.61732 2,3c1.30656,0.54119 1.77025,2.02675 2,3c0.51375,2.17625 0.94853,3.2987 2,5c1.17557,1.90211 3.10341,3.90633 4,5c2.28587,2.78832 2.23463,4.15224 3,6c0.5412,1.30656 1,2 2,3c1,1 1.70711,1.70711 1,1c-0.70711,-0.70711 -2,-1 -3,-2c-3,-3 -6,-6 -9,-9c-2,-2 -5,-5 -8,-8c-3,-3 -5.75531,-8.132 -8,-12c-1.80972,-3.11848 -5.14429,-6.93414 -6,-9c-1.21014,-2.92156 -2.48625,-5.82375 -3,-8c-0.4595,-1.9465 -1,-3 -1,-5c0,-1 0,-2 -1,-3l1,0l1,0l0,1" id="svg_20" fill="none"/>
 </g>

</svg>